<svg id="filled_outline" height="512" viewBox="0 0 512 512" width="512" xmlns="http://www.w3.org/2000/svg" data-name="filled outline"><path d="m384 304-16-24h-48l-16 24v32h80z" fill="#ffbfa1"/><path d="m248 488h-208v-104l-16-16v-77.17109a32 32 0 0 1 16.45943-27.973l55.54057-30.85591 16-24h48l16 24 55.54057 30.85587a32 32 0 0 1 16.45943 27.97304z" fill="#718799"/><path d="m40 384 24 24h40l64-40 40-24h40v144h-208z" fill="#62798c"/><path d="m488 400-56 24v64h-216v-81.14l-16-6.86 26.87-53.73a31.97439 31.97439 0 0 1 15.62-14.93l13.51-6 24.99-11.11 23.01-10.23 12.69 12.68994a38.62859 38.62859 0 0 0 54.62 0l12.69-12.68994 23.01 10.23 24.99 11.11 13.51 6a31.97439 31.97439 0 0 1 15.62 14.93z" fill="#d1e4ff"/><path d="m400 168v64a56 56 0 0 1 -55.99994 56h-.00012a56 56 0 0 1 -55.99994-56v-64z" fill="#ffceb6"/><path d="m288 144-8 16a16 16 0 0 0 16 16h96a16 16 0 0 0 16-16l-8-16z" fill="#ffb401"/><path d="m152 336-17.778 7.111-54.222.889v-24h96v16z" fill="#62798c"/><path d="m432 325.34v162.66h-176v-162.66l24.99-11.11 31.01 69.77h64l31.01-69.77z" fill="#f78e00"/><path d="m232 432h-96l-16 24 24 32h88z" fill="#ffceb6"/><path d="m176 232-32 57.6-8 14.4-8-14.4-32-57.6 16-24h48z" fill="#d1e4ff"/><g fill="#ffceb6"><path d="m152 336 16-24h40v32l-40 24z"/><path d="m134.222 343.111-46.222-23.111h-24v32h48z"/><path d="m192 96v64a56 56 0 0 1 -55.99994 56h-.00006a56 56 0 0 1 -56-56v-64z"/></g><path d="m80 72-8 16a16 16 0 0 0 16 16h96a16 16 0 0 0 16-16l-8-16z" fill="#ffb401"/><path d="m368 432v56h-160l-96-112 70.04 31.84 17.96 8.16 6.92-4.26 97.08-59.74z" fill="#548aff"/><path d="m432 424v16l-32 16-24-24h-24l-16 24 24 32h96l32-24-16.291-57.018z" fill="#ffceb6"/><path d="m128 24h16a48 48 0 0 1 48 48 0 0 0 0 1 0 0h-112a0 0 0 0 1 0 0 48 48 0 0 1 48-48z" fill="#ffc431"/><path d="m336 96h16a48 48 0 0 1 48 48 0 0 0 0 1 0 0h-112a0 0 0 0 1 0 0 48 48 0 0 1 48-48z" fill="#ffc431"/><circle cx="320" cy="208" r="8"/><circle cx="368" cy="208" r="8"/><path d="m328 256h8a24.0275 24.0275 0 0 0 24-24v-8h-16v8a8.00917 8.00917 0 0 1 -8 8h-8z"/><path d="m495.69238 461.80225-14.35547-50.24317 9.81446-4.20605a8 8 0 0 0 4.0039-10.93067l-26.86572-53.73144a40.09058 40.09058 0 0 0 -19.53174-18.66406l-8.75781-3.89234v-.13452h-.30261l-50.32825-22.36816-8.77924-13.16895a63.9592 63.9592 0 0 0 27.4101-52.46289v-54.13062a23.94292 23.94292 0 0 0 8-17.86938 7.99583 7.99583 0 0 0 -.84473-3.57764l-7.20575-14.4115a56.05772 56.05772 0 0 0 -55.94952-54.01086h-16a56.05772 56.05772 0 0 0 -55.94952 54.01086l-7.20575 14.4115a7.99583 7.99583 0 0 0 -.84473 3.57764 23.94292 23.94292 0 0 0 8 17.86938v54.13062a63.95927 63.95927 0 0 0 27.41 52.46289l-8.7796 13.16895-42.6304 18.94702v-25.74976a40.02139 40.02139 0 0 0 -20.57422-34.96631l-53.84521-29.91406-8.99067-13.48584a63.959 63.959 0 0 0 27.4101-52.46289v-54.13062a23.94292 23.94292 0 0 0 8-17.86938 7.99583 7.99583 0 0 0 -.84473-3.57764l-7.20575-14.4115a56.05772 56.05772 0 0 0 -55.94952-54.01086h-16a56.05772 56.05772 0 0 0 -55.94952 54.01086l-7.20575 14.4115a7.99583 7.99583 0 0 0 -.84473 3.57764 23.94292 23.94292 0 0 0 8 17.86938v54.13062a63.959 63.959 0 0 0 27.4101 52.46289l-8.99067 13.48584-53.84521 29.91406a40.02139 40.02139 0 0 0 -20.57422 34.96631v77.1709a7.99877 7.99877 0 0 0 2.34326 5.65674l13.65674 13.65674v100.68652a7.99977 7.99977 0 0 0 8 8h416a7.99948 7.99948 0 0 0 4.7998-1.6001l32-24a8.00015 8.00015 0 0 0 2.89258-8.59765zm-53.43213-123.15425a24.05951 24.05951 0 0 1 11.71875 11.19819l23.07129 46.14258-37.05029 15.87891v-74.22437zm-112.66015 122.1518 14.40014 19.2002h-76.40747l-55.27618-62.18579 89.85382-55.29468 49.215 61.51868a7.98847 7.98847 0 0 0 -6.04169 3.52429l-16 24a7.99882 7.99882 0 0 0 .25638 9.2373zm-118.65039-64.811 23.07129-46.14261a24.0565 24.0565 0 0 1 11.71923-11.19819l2.25977-1.00445v39.42432l-33.33429 20.51355zm100.08008-73.64551a46.62684 46.62684 0 0 0 65.94042 0l8.80134-8.80127 10.67913 4.7461-25.6499 57.71188h-37.35565l-23.19806-28.99756a7.99388 7.99388 0 0 0 -7.23981-2.93408l-11.45794-25.78015 10.67913-4.74622zm-22.06836 29.51758-24.96143 15.36081v-36.68921l12.92834-5.746zm82.88366 72.13913-25.6-32h29.75491a8 8 0 0 0 7.31055-4.751l27.76117-62.46264 12.92828 5.74587v104.52343l-22.42041 11.21045-19.92285-19.92285a7.99877 7.99877 0 0 0 -5.65674-2.34326zm-83.68933-262.42334 4.78858-9.57666h102.11132l4.78858 9.57666a8.01424 8.01424 0 0 1 -7.84424 6.42334h-96a8.01424 8.01424 0 0 1 -7.84424-6.42334zm103.04053-25.57666h-23.19629v-28.64966a40.14516 40.14516 0 0 1 23.19629 28.64966zm-71.19629-28.64966v20.64966h16v-24h16v32h-55.19629a40.14516 40.14516 0 0 1 23.19629-28.64966zm-24 124.64966v-48h96v48a48 48 0 0 1 -96 0zm48 64a63.67756 63.67756 0 0 0 22.35962-4.03882l7.34625 11.01953-8.04913 8.04908a30.628 30.628 0 0 1 -43.31348 0l-8.04913-8.04908 7.34625-11.01953a63.67756 63.67756 0 0 0 22.35962 4.03882zm-177.36206-63.62122-22.63794 40.74822v-49.64482a63.47368 63.47368 0 0 0 14.35962-3.521zm-86.48218-142.80212 4.78858-9.57666h102.11132l4.78858 9.57666a8.01424 8.01424 0 0 1 -7.84424 6.42334h-96a8.01424 8.01424 0 0 1 -7.84424-6.42334zm103.04053-25.57666h-23.19629v-28.64966a40.14516 40.14516 0 0 1 23.19629 28.64966zm-71.19629-28.64966v20.64966h16v-24h16v32h-55.19629a40.14516 40.14516 0 0 1 23.19629-28.64966zm-24 124.64966v-48h96v48a48 48 0 0 1 -96 0zm40 63.48218v49.64482l-22.63794-40.74817 8.27832-12.4176a63.47368 63.47368 0 0 0 14.35962 3.52095zm-96 67.34692a24.01255 24.01255 0 0 1 12.34473-20.98l48.54718-26.9707 36.11493 65.00683a7.99993 7.99993 0 0 0 13.98632 0l36.11493-65.00683 48.54718 26.9707a24.012 24.012 0 0 1 12.34473 20.98v32.861l-.75781.3368a40.09058 40.09058 0 0 0 -19.53174 18.66406l-26.86572 53.73144a7.93675 7.93675 0 0 0 .28753 7.66846l-39.243-17.83765 18.288-11.42993 39.939-23.96338a8.00072 8.00072 0 0 0 3.88374-6.8599v-32a7.99977 7.99977 0 0 0 -8-8h-40a7.99943 7.99943 0 0 0 -6.65625 3.5625l-14.62164 21.93237-12.1352 4.85425-43.00927-21.50439a7.99583 7.99583 0 0 0 -3.57764-.84473h-24a7.99977 7.99977 0 0 0 -8 8v32a7.99977 7.99977 0 0 0 8 8h48a8.00164 8.00164 0 0 0 2.97119-.57227l33.16553-13.26611 9.45459 18.90967-21.17981 13.2373-21.10095-9.5913a8.00013 8.00013 0 0 0 -9.38477 12.48925l9.01727 10.52014-13.23748 8.27332h-34.39157l-35.314-35.314zm139.29181 65.86621-10.06036-20.1206 11.0498-16.57471h27.71875v19.4707zm-56.58136-14.396-4.25098 1.70069h-38.45947v-16h14.11133zm-66.71045 61.01417 10.34326 10.34326a7.99877 7.99877 0 0 0 5.65674 2.34326h40a8.00073 8.00073 0 0 0 4.23975-1.21582l17.23431-10.77136 17.13184 19.98718h-6.6059a7.99943 7.99943 0 0 0 -6.65625 3.5625l-16 24a7.99882 7.99882 0 0 0 .25635 9.2373l14.40014 19.2002h-80.00024zm81.7959 52.41452 10.48535-15.728h16.03894l34.28571 40h-42.6059zm81.88379 24.272-70.07764-81.75684 53.544 24.338 51.03895 57.41884zm241.65381 0h-89.3335l-18.2041-24.272 10.48535-15.728h16.40475l21.65722 21.65674a7.99942 7.99942 0 0 0 9.23438 1.49853l32-16a7.99924 7.99924 0 0 0 4.4224-7.15527v-10.72461l26.51221-11.3623 12.2832 42.99072z"/><circle cx="112" cy="136" r="8"/><circle cx="160" cy="136" r="8"/><path d="m120 184h8a24.0275 24.0275 0 0 0 24-24v-8h-16v8a8.00917 8.00917 0 0 1 -8 8h-8z"/></svg>